<svg xmlns="http://www.w3.org/2000/svg" xmlns:xlink="http://www.w3.org/1999/xlink" fill="none" version="1.1" width="79" height="24" viewBox="0 0 79 24"><defs><filter id="master_svg0_268_0054" filterUnits="userSpaceOnUse" color-interpolation-filters="sRGB" x="-10" y="-6" width="99" height="44"><feFlood flood-opacity="0" result="BackgroundImageFix"/><feColorMatrix in="SourceAlpha" type="matrix" values="0 0 0 0 0 0 0 0 0 0 0 0 0 0 0 0 0 0 127 0"/><feOffset dy="4" dx="0"/><feGaussianBlur stdDeviation="5"/><feColorMatrix type="matrix" values="0 0 0 0 0 0 0 0 0 0 0 0 0 0 0 0 0 0 0.3019607961177826 0"/><feBlend mode="normal" in2="BackgroundImageFix" result="effect1_dropShadow"/><feBlend mode="normal" in="SourceGraphic" in2="effect1_dropShadow" result="shape"/></filter></defs><g style="mix-blend-mode:passthrough"><g><g filter="url(#master_svg0_268_0054)" style="mix-blend-mode:passthrough"><path d="M15.9694,0C9.89717,0,6.74658,7.24138,10.8858,11.6842C6.65852,16.4668,10.0541,24,16.4371,24L62.7672,24C69.1416,24,72.5778,16.5205,68.4252,11.6842C72.4936,7.18901,69.3038,0,63.241,0L39.5,0L15.9694,0Z" fill="#EDA73F" fill-opacity="1"/></g><g style="mix-blend-mode:passthrough"><path d="M23.03125,10.09677L23.83984,6.962L25.48047,7.39559L24.99414,9.25302L25.9668,9.07723L25.87891,5.61434L27.58398,5.56161L27.66016,8.76669L29.03125,8.491299999999999L29.34766,9.991299999999999L27.70703,10.34286L27.77734,13.8761L28.81445,13.6241L29.14844,15.2647L27.81836,15.5987L27.92969,20.0518L26.25391,20.1046L26.14844,16.003L23.58789,16.589L23.23047,14.8839L26.0957,14.2569L26.00781,10.70028L24.02148,11.09872L23.03125,10.09677ZM29.86914,10.23739L33.502,10.16122L33.502,8.54403L30.4082,8.438559999999999L30.44336,6.76278L33.5195,6.85067L33.5371,4.712L35.2129,4.712L35.2129,6.90927L38.3418,6.99716L38.3066,8.69052L35.2129,8.59677L35.2129,10.12606L38.9043,10.03817L38.957,11.72567L29.9043,11.92489L29.86914,10.23739ZM37.5508,15.1944L37.8027,18.3936L37.2637,19.2725L34.7441,20.2335L34.1348,18.6163L36.0742,17.878L35.8398,15.1358L29.45898,14.9366L29.53516,13.2374L35.6992,13.4366L35.6113,12.1534L37.3164,12.0245L37.4277,13.5011L38.6055,13.5362L38.5352,15.2296L37.5508,15.1944ZM30.53125,16.0382L32.1367,15.4522L33.3555,19.003L31.75586,19.5714L30.53125,16.0382ZM42.4375,5.93661L48.0566,5.42684L48.1152,4.659269999999999L49.8027,4.74716L49.7676,5.25692L55.3691,4.74716L55.4922,6.51669L49.662099999999995,7.06161L49.626999999999995,7.41317L53.7285,7.05575L54.6484,7.97567L54.2852,12.3936L53.5469,13.1788L49.2285,13.6534L49.1934,14.21L53.4941,13.7765L53.335899999999995,13.4015L54.918,12.7335L56.0898,15.5225L54.5371,16.1905L54.1797,15.3995L42.7832,16.5479L44.224599999999995,17.4327L42.7832,19.7003L41.3477,18.8155L42.7656,16.5479L42.5137,16.5655L42.337900000000005,14.8956L47.4824,14.3741L47.5176,13.8526L44.834,14.1397L43.8848,13.3839L43.685500000000005,11.4913L42.5664,11.47372L42.5664,9.76278L43.5039,9.78036L43.4102,8.86044L44.1836,7.88192L47.9336,7.56552L47.9512,7.20809L42.601600000000005,7.69442L42.4375,5.93661ZM46.2578,19.5948L45.5723,19.1612L44.564499999999995,17.1632L46.0762,16.389699999999998L46.8906,17.9718L48.636700000000005,18.1358L48.0039,16.9112L49.5156,16.1554L50.6523,18.3116L51.3906,18.3702L53.1191,16.6417L54.1973,16.5304L56.5703,18.171L55.6211,19.5362L53.8398,18.3292L52.3223,19.8468L51.625,20.0753L46.2578,19.5948ZM49.375,11.52645L49.334,11.96005L52.650400000000005,11.57333L52.8672,8.87802L49.5156,9.17684L49.4805,9.83309L51.3555,9.85653L51.337900000000005,11.52645L49.375,11.52645ZM45.4785,12.3761L47.6289,12.1417L47.6816,11.50887L45.3906,11.4913L45.4785,12.3761ZM45.2148,9.803799999999999L47.787099999999995,9.82137L47.8047,9.34677L45.1973,9.569420000000001L45.2148,9.803799999999999Z" fill="#FFFFFF" fill-opacity="1"/></g></g></g></svg>